# xmcd
#
# Track frame offsets:
#	150
#	16928
#	32718
#	48235
#	61703
#	78182
#	94453
#	111344
#	124057
#	138095
#	153592
#	170197
#	187250
#	204720
#	220837
#	238542
#	256504
#	273672
#
# Disc length: 3836 seconds
#
# Revision: 3
# Processed by: cddbd v1.5.1PL0 Copyright (c) Steve Scherf et al.
# Submitted via: audiograbber 1.83.01
#
DISCID=fe0efa12
DTITLE=2001-07 Country Radio - 2001-07 Country Radio
DYEAR=2001
DGENRE=Country
TTITLE0=Brooks and Dunn - Only In America
TTITLE1=Clay Walker - If You Ever Geel Like Loving Me Again
TTITLE2=Martina McBtide - When God Fearing Women Get The Blues
TTITLE3=Mark McGuinn - That's A Plan
TTITLE4=Faith Hill - There You'll Be
TTITLE5=Kenny Chesney - The Tin Man
TTITLE6=Joe Diffie - In Another World
TTITLE7=George Jones - The Man He Was
TTITLE8=Teri Clark - Getting There
TTITLE9=Gary Allan - Man Of Me
TTITLE10=Billy Yates - Shadows
TTITLE11=Aaron Tippin - Always Was
TTITLE12=BR549 - Too Lazy To Work, Too Nervous To Steal
TTITLE13=Lorrie Morgan and Sammy Kershaw - I Finally Found Someone
TTITLE14=Patty Loveless - Strong Heart
TTITLE15=Marshall Dyllon - She Ain't Gonna Cry
TTITLE16=John Michael Montgomery - Even Then
TTITLE17=Dwight Yoakam - I Want You To Want Me
EXTD=
EXTT0=
EXTT1=
EXTT2=
EXTT3=
EXTT4=
EXTT5=
EXTT6=
EXTT7=
EXTT8=
EXTT9=
EXTT10=
EXTT11=
EXTT12=
EXTT13=
EXTT14=
EXTT15=
EXTT16=
EXTT17=
PLAYORDER=
